<svg width="97" height="29" viewBox="0 0 97 29" fill="none" xmlns="http://www.w3.org/2000/svg">
<path d="M11.8 0.68C14.76 0.68 17.3467 1.28 19.56 2.48C21.8 3.68 23.52 5.34667 24.72 7.48C25.92 9.61333 26.52 12.04 26.52 14.76C26.52 17.4533 25.92 19.88 24.72 22.04C23.52 24.2 21.8 25.9067 19.56 27.16C17.3467 28.3867 14.76 29 11.8 29H2.98023e-08V0.68H11.8ZM11 21.08C13 21.08 14.5867 20.5333 15.76 19.44C16.9333 18.3467 17.52 16.7867 17.52 14.76C17.52 12.7333 16.9333 11.1733 15.76 10.08C14.5867 8.98667 13 8.44 11 8.44H8.88V21.08H11ZM38.6066 0.68V29H29.7266V0.68H38.6066ZM69.7772 29H60.8972L51.4972 14.76V29H42.6172V0.68H51.4972L60.8972 15.16V0.68H69.7772V29ZM96.0291 0.68V7.72H88.5091V29H79.6291V7.72H72.1891V0.68H96.0291Z" fill="white"/>
</svg>
